<svg width="1000" height="1000" viewBox="0 0 1000 1000" fill="none" xmlns="http://www.w3.org/2000/svg">
<rect width="1000" height="1000" rx="500" fill="white"/>
<path d="M529.408 50.9421C258.168 33.5963 33.5964 258.144 50.9421 529.408C65.2754 753.615 246.385 934.725 470.592 949.058C741.857 966.404 966.404 741.857 949.058 470.592C934.725 246.385 753.615 65.2754 529.408 50.9421ZM703.764 723.296C721.45 662.489 732.018 592.547 733.427 517.309H914.95C910.965 613.78 873.942 701.796 814.908 770.45C787.82 751.453 749.946 735.419 703.764 723.296ZM185.117 770.45C126.058 701.796 89.0347 613.78 85.0506 517.309H266.573C267.983 592.547 278.55 662.489 296.26 723.296C250.029 735.419 212.18 751.453 185.117 770.45ZM296.163 277.02C278.502 337.754 267.983 407.599 266.573 482.691H85.0506C89.0104 386.682 125.718 299.054 184.266 230.546C211.815 249.203 249.932 265.019 296.163 277.02ZM482.691 482.691H301.192C302.674 411.073 313.315 343.463 330.733 284.964C377.499 294.414 429.39 299.783 482.691 300.755V482.691ZM482.691 517.309V699.27C429.269 700.241 377.402 705.683 330.782 715.231C313.339 656.707 302.674 589.025 301.192 517.309H482.691ZM517.309 517.309H698.832C697.326 589.025 686.661 656.707 669.218 715.231C622.574 705.683 570.731 700.241 517.309 699.27V517.309ZM517.309 482.691V300.73C570.61 299.783 622.501 294.39 669.267 284.964C686.685 343.463 697.326 411.073 698.832 482.691H517.309ZM517.309 266.136V86.3624C574.157 97.1488 625.004 160.288 658.359 251.9C614.873 260.379 566.771 265.213 517.309 266.136ZM482.691 86.3624V266.136C433.229 265.213 385.127 260.379 341.641 251.9C374.997 160.288 425.843 97.1488 482.691 86.3624ZM482.691 733.888V913.638C425.892 902.851 375.069 839.809 341.714 748.294C385.054 739.694 433.132 734.811 482.691 733.888ZM517.309 913.638V733.888C566.844 734.811 614.922 739.694 658.286 748.294C624.955 839.809 574.132 902.851 517.309 913.638ZM733.427 482.691C732.018 407.599 721.498 337.754 703.861 277.02C750.068 265.019 788.209 249.203 815.734 230.546C874.282 299.03 910.99 386.682 914.95 482.691H733.427ZM791.805 204.722C767.584 220.075 733.67 233.631 693.269 243.98C671.55 182.59 642.082 132.618 607.342 98.7522C677.964 117.677 741.249 154.749 791.805 204.722ZM306.731 244.005C266.331 233.631 232.416 220.075 208.196 204.722C258.751 154.749 322.036 117.677 392.682 98.7522C357.942 132.618 328.45 182.59 306.731 244.005ZM209.07 796.129C232.781 780.532 266.428 766.806 306.828 756.311C328.547 817.58 357.991 867.431 392.682 901.248C322.425 882.444 259.48 845.639 209.07 796.129ZM693.172 756.311C733.572 766.806 767.219 780.532 790.93 796.129C740.52 845.664 677.575 882.444 607.318 901.248C642.009 867.431 671.453 817.58 693.172 756.311Z" fill="black"/>
<path d="M529.408 50.9421C258.168 33.5963 33.5964 258.144 50.9421 529.408C65.2754 753.615 246.385 934.725 470.592 949.058C741.857 966.404 966.404 741.857 949.058 470.592C934.725 246.385 753.615 65.2754 529.408 50.9421ZM703.764 723.296C721.45 662.489 732.018 592.547 733.427 517.309H914.95C910.965 613.78 873.942 701.796 814.908 770.45C787.82 751.453 749.946 735.419 703.764 723.296ZM185.117 770.45C126.058 701.796 89.0347 613.78 85.0506 517.309H266.573C267.983 592.547 278.55 662.489 296.26 723.296C250.029 735.419 212.18 751.453 185.117 770.45ZM296.163 277.02C278.502 337.754 267.983 407.599 266.573 482.691H85.0506C89.0104 386.682 125.718 299.054 184.266 230.546C211.815 249.203 249.932 265.019 296.163 277.02ZM482.691 482.691H301.192C302.674 411.073 313.315 343.463 330.733 284.964C377.499 294.414 429.39 299.783 482.691 300.755V482.691ZM482.691 517.309V699.27C429.269 700.241 377.402 705.683 330.782 715.231C313.339 656.707 302.674 589.025 301.192 517.309H482.691ZM517.309 517.309H698.832C697.326 589.025 686.661 656.707 669.218 715.231C622.574 705.683 570.731 700.241 517.309 699.27V517.309ZM517.309 482.691V300.73C570.61 299.783 622.501 294.39 669.267 284.964C686.685 343.463 697.326 411.073 698.832 482.691H517.309ZM517.309 266.136V86.3624C574.157 97.1488 625.004 160.288 658.359 251.9C614.873 260.379 566.771 265.213 517.309 266.136ZM482.691 86.3624V266.136C433.229 265.213 385.127 260.379 341.641 251.9C374.997 160.288 425.843 97.1488 482.691 86.3624ZM482.691 733.888V913.638C425.892 902.851 375.069 839.809 341.714 748.294C385.054 739.694 433.132 734.811 482.691 733.888ZM517.309 913.638V733.888C566.844 734.811 614.922 739.694 658.286 748.294C624.955 839.809 574.132 902.851 517.309 913.638ZM733.427 482.691C732.018 407.599 721.498 337.754 703.861 277.02C750.068 265.019 788.209 249.203 815.734 230.546C874.282 299.03 910.99 386.682 914.95 482.691H733.427ZM791.805 204.722C767.584 220.075 733.67 233.631 693.269 243.98C671.55 182.59 642.082 132.618 607.342 98.7522C677.964 117.677 741.249 154.749 791.805 204.722ZM306.731 244.005C266.331 233.631 232.416 220.075 208.196 204.722C258.751 154.749 322.036 117.677 392.682 98.7522C357.942 132.618 328.45 182.59 306.731 244.005ZM209.07 796.129C232.781 780.532 266.428 766.806 306.828 756.311C328.547 817.58 357.991 867.431 392.682 901.248C322.425 882.444 259.48 845.639 209.07 796.129ZM693.172 756.311C733.572 766.806 767.219 780.532 790.93 796.129C740.52 845.664 677.575 882.444 607.318 901.248C642.009 867.431 671.453 817.58 693.172 756.311Z" fill="black" fill-opacity="0.2"/>
<path d="M949.058 529.408C966.404 258.168 741.857 33.5963 470.592 50.9421C246.385 65.2754 65.2754 246.385 50.9421 470.592C33.5963 741.856 258.144 966.404 529.408 949.058C753.615 934.725 934.725 753.615 949.058 529.408ZM276.704 703.764C337.511 721.45 407.453 732.018 482.691 733.427V914.949C386.22 910.965 298.204 873.942 229.55 814.908C248.547 787.82 264.581 749.946 276.704 703.764ZM229.55 185.116C298.204 126.058 386.22 89.0347 482.691 85.0505V266.573C407.453 267.982 337.511 278.55 276.704 296.26C264.581 250.029 248.547 212.18 229.55 185.116ZM722.98 296.163C662.246 278.502 592.426 267.982 517.309 266.573V85.0505C613.318 89.0104 700.97 125.718 769.454 184.266C750.797 211.815 734.981 249.932 722.98 296.163ZM517.309 482.691L517.309 301.168C588.927 302.674 656.537 313.315 715.036 330.733C705.61 377.499 700.217 429.39 699.245 482.691L517.309 482.691ZM482.691 482.691L300.73 482.691C299.759 429.269 294.317 377.402 284.769 330.782C343.293 313.339 410.976 302.674 482.691 301.168L482.691 482.691ZM482.691 517.309L482.691 698.832C410.976 697.326 343.293 686.661 284.769 669.218C294.317 622.574 299.759 570.731 300.73 517.309L482.691 517.309ZM517.309 517.309L699.27 517.309C700.217 570.61 705.61 622.501 715.036 669.267C656.537 686.685 588.927 697.326 517.309 698.832L517.309 517.309ZM733.864 517.309H913.638C902.851 574.157 839.712 625.004 748.1 658.359C739.622 614.873 734.787 566.771 733.864 517.309ZM913.638 482.691H733.864C734.787 433.229 739.622 385.127 748.1 341.641C839.712 374.996 902.851 425.843 913.638 482.691ZM266.112 482.691H86.3624C97.1488 425.892 160.191 375.069 251.706 341.714C260.306 385.054 265.189 433.131 266.112 482.691ZM86.3624 517.309H266.112C265.189 566.844 260.306 614.922 251.706 658.286C160.191 624.955 97.1488 574.132 86.3624 517.309ZM517.309 733.427C592.426 732.018 662.246 721.498 722.98 703.861C734.981 750.068 750.797 788.209 769.454 815.734C700.97 874.282 613.318 910.99 517.309 914.949V733.427ZM795.278 791.804C779.925 767.584 766.393 733.67 756.02 693.269C817.434 671.55 867.382 642.082 901.248 607.342C882.347 677.964 845.251 741.249 795.278 791.804ZM755.995 306.731C766.369 266.33 779.925 232.416 795.278 208.196C845.251 258.751 882.323 322.036 901.248 392.682C867.382 357.942 817.41 328.45 755.995 306.731ZM203.896 209.07C219.468 232.781 233.194 266.428 243.689 306.828C182.42 328.547 132.569 357.991 98.7522 392.682C117.556 322.425 154.361 259.48 203.896 209.07ZM243.689 693.172C233.194 733.572 219.468 767.219 203.896 790.93C154.336 740.52 117.556 677.575 98.7522 607.318C132.569 642.009 182.42 671.453 243.689 693.172Z" fill="black"/>
<path d="M949.058 529.408C966.404 258.168 741.857 33.5963 470.592 50.9421C246.385 65.2754 65.2754 246.385 50.9421 470.592C33.5963 741.856 258.144 966.404 529.408 949.058C753.615 934.725 934.725 753.615 949.058 529.408ZM276.704 703.764C337.511 721.45 407.453 732.018 482.691 733.427V914.949C386.22 910.965 298.204 873.942 229.55 814.908C248.547 787.82 264.581 749.946 276.704 703.764ZM229.55 185.116C298.204 126.058 386.22 89.0347 482.691 85.0505V266.573C407.453 267.982 337.511 278.55 276.704 296.26C264.581 250.029 248.547 212.18 229.55 185.116ZM722.98 296.163C662.246 278.502 592.426 267.982 517.309 266.573V85.0505C613.318 89.0104 700.97 125.718 769.454 184.266C750.797 211.815 734.981 249.932 722.98 296.163ZM517.309 482.691L517.309 301.168C588.927 302.674 656.537 313.315 715.036 330.733C705.61 377.499 700.217 429.39 699.245 482.691L517.309 482.691ZM482.691 482.691L300.73 482.691C299.759 429.269 294.317 377.402 284.769 330.782C343.293 313.339 410.976 302.674 482.691 301.168L482.691 482.691ZM482.691 517.309L482.691 698.832C410.976 697.326 343.293 686.661 284.769 669.218C294.317 622.574 299.759 570.731 300.73 517.309L482.691 517.309ZM517.309 517.309L699.27 517.309C700.217 570.61 705.61 622.501 715.036 669.267C656.537 686.685 588.927 697.326 517.309 698.832L517.309 517.309ZM733.864 517.309H913.638C902.851 574.157 839.712 625.004 748.1 658.359C739.622 614.873 734.787 566.771 733.864 517.309ZM913.638 482.691H733.864C734.787 433.229 739.622 385.127 748.1 341.641C839.712 374.996 902.851 425.843 913.638 482.691ZM266.112 482.691H86.3624C97.1488 425.892 160.191 375.069 251.706 341.714C260.306 385.054 265.189 433.131 266.112 482.691ZM86.3624 517.309H266.112C265.189 566.844 260.306 614.922 251.706 658.286C160.191 624.955 97.1488 574.132 86.3624 517.309ZM517.309 733.427C592.426 732.018 662.246 721.498 722.98 703.861C734.981 750.068 750.797 788.209 769.454 815.734C700.97 874.282 613.318 910.99 517.309 914.949V733.427ZM795.278 791.804C779.925 767.584 766.393 733.67 756.02 693.269C817.434 671.55 867.382 642.082 901.248 607.342C882.347 677.964 845.251 741.249 795.278 791.804ZM755.995 306.731C766.369 266.33 779.925 232.416 795.278 208.196C845.251 258.751 882.323 322.036 901.248 392.682C867.382 357.942 817.41 328.45 755.995 306.731ZM203.896 209.07C219.468 232.781 233.194 266.428 243.689 306.828C182.42 328.547 132.569 357.991 98.7522 392.682C117.556 322.425 154.361 259.48 203.896 209.07ZM243.689 693.172C233.194 733.572 219.468 767.219 203.896 790.93C154.336 740.52 117.556 677.575 98.7522 607.318C132.569 642.009 182.42 671.453 243.689 693.172Z" fill="black" fill-opacity="0.2"/>
</svg>
