<svg width="244" height="244" viewBox="0 0 244 244" fill="none" xmlns="http://www.w3.org/2000/svg">
<path d="M129.973 0.255406C56.4366 -4.44722 -4.4472 56.43 0.25542 129.973C4.14134 190.758 53.2423 239.859 114.027 243.745C187.57 248.447 248.447 187.57 243.745 114.027C239.859 53.2423 190.758 4.14133 129.973 0.255406ZM177.243 182.538C182.038 166.053 184.903 147.091 185.285 126.693H234.497C233.417 152.847 223.38 176.709 207.375 195.322C200.031 190.172 189.763 185.825 177.243 182.538ZM36.6316 195.322C20.6203 176.709 10.5828 152.847 9.5026 126.693H58.7155C59.0975 147.091 61.9625 166.053 66.7639 182.538C54.2302 185.825 43.9687 190.172 36.6316 195.322ZM66.7376 61.5476C61.9494 78.0134 59.0975 96.949 58.7155 117.307H9.5026C10.5762 91.2782 20.5281 67.5214 36.4011 48.948C43.8699 54.0063 54.2039 58.2939 66.7376 61.5476ZM117.307 117.307H68.101C68.5027 97.8908 71.3875 79.5611 76.1099 63.7013C88.7886 66.2634 102.857 67.7189 117.307 67.9824V117.307ZM117.307 126.693V176.024C102.824 176.288 88.7622 177.763 76.1231 180.351C71.3941 164.485 68.5027 146.136 68.101 126.693H117.307ZM126.693 126.693H175.906C175.497 146.136 172.606 164.485 167.877 180.351C155.231 177.763 141.176 176.288 126.693 176.024V126.693ZM126.693 117.307V67.9758C141.143 67.719 155.211 66.2568 167.89 63.7013C172.613 79.5611 175.497 97.8908 175.906 117.307H126.693ZM126.693 58.5969V9.85824C142.105 12.7826 155.89 29.9004 164.933 54.7373C153.143 57.036 140.102 58.3466 126.693 58.5969ZM117.307 9.85824V58.5969C103.898 58.3466 90.8567 57.036 79.0672 54.7373C88.1102 29.9004 101.895 12.7826 117.307 9.85824ZM117.307 185.41V234.142C101.908 231.217 88.1299 214.126 79.0869 189.315C90.8369 186.984 103.871 185.66 117.307 185.41ZM126.693 234.142V185.41C140.122 185.66 153.157 186.984 164.913 189.315C155.877 214.126 142.098 231.217 126.693 234.142ZM185.285 117.307C184.903 96.949 182.051 78.0134 177.269 61.5476C189.796 58.2939 200.137 54.0063 207.599 48.948C223.472 67.5148 233.424 91.2782 234.497 117.307H185.285ZM201.111 41.9467C194.545 46.1093 185.35 49.7844 174.397 52.5902C168.509 35.9466 160.52 22.3986 151.102 13.2173C170.248 18.348 187.405 28.3987 201.111 41.9467ZM69.6026 52.5968C58.6496 49.7844 49.4551 46.1093 42.8886 41.9467C56.5947 28.3987 73.752 18.348 92.905 13.2173C83.4866 22.3986 75.4908 35.9466 69.6026 52.5968ZM43.1257 202.284C49.5539 198.055 58.676 194.334 69.629 191.489C75.5171 208.1 83.4998 221.615 92.905 230.783C73.8574 225.685 56.7923 215.707 43.1257 202.284ZM174.371 191.489C185.324 194.334 194.446 198.055 200.874 202.284C187.208 215.713 170.143 225.685 151.095 230.783C160.5 221.615 168.483 208.1 174.371 191.489Z" fill="black"/>
<path d="M129.973 0.255406C56.4366 -4.44722 -4.4472 56.43 0.25542 129.973C4.14134 190.758 53.2423 239.859 114.027 243.745C187.57 248.447 248.447 187.57 243.745 114.027C239.859 53.2423 190.758 4.14133 129.973 0.255406ZM177.243 182.538C182.038 166.053 184.903 147.091 185.285 126.693H234.497C233.417 152.847 223.38 176.709 207.375 195.322C200.031 190.172 189.763 185.825 177.243 182.538ZM36.6316 195.322C20.6203 176.709 10.5828 152.847 9.5026 126.693H58.7155C59.0975 147.091 61.9625 166.053 66.7639 182.538C54.2302 185.825 43.9687 190.172 36.6316 195.322ZM66.7376 61.5476C61.9494 78.0134 59.0975 96.949 58.7155 117.307H9.5026C10.5762 91.2782 20.5281 67.5214 36.4011 48.948C43.8699 54.0063 54.2039 58.2939 66.7376 61.5476ZM117.307 117.307H68.101C68.5027 97.8908 71.3875 79.5611 76.1099 63.7013C88.7886 66.2634 102.857 67.7189 117.307 67.9824V117.307ZM117.307 126.693V176.024C102.824 176.288 88.7622 177.763 76.1231 180.351C71.3941 164.485 68.5027 146.136 68.101 126.693H117.307ZM126.693 126.693H175.906C175.497 146.136 172.606 164.485 167.877 180.351C155.231 177.763 141.176 176.288 126.693 176.024V126.693ZM126.693 117.307V67.9758C141.143 67.719 155.211 66.2568 167.89 63.7013C172.613 79.5611 175.497 97.8908 175.906 117.307H126.693ZM126.693 58.5969V9.85824C142.105 12.7826 155.89 29.9004 164.933 54.7373C153.143 57.036 140.102 58.3466 126.693 58.5969ZM117.307 9.85824V58.5969C103.898 58.3466 90.8567 57.036 79.0672 54.7373C88.1102 29.9004 101.895 12.7826 117.307 9.85824ZM117.307 185.41V234.142C101.908 231.217 88.1299 214.126 79.0869 189.315C90.8369 186.984 103.871 185.66 117.307 185.41ZM126.693 234.142V185.41C140.122 185.66 153.157 186.984 164.913 189.315C155.877 214.126 142.098 231.217 126.693 234.142ZM185.285 117.307C184.903 96.949 182.051 78.0134 177.269 61.5476C189.796 58.2939 200.137 54.0063 207.599 48.948C223.472 67.5148 233.424 91.2782 234.497 117.307H185.285ZM201.111 41.9467C194.545 46.1093 185.35 49.7844 174.397 52.5902C168.509 35.9466 160.52 22.3986 151.102 13.2173C170.248 18.348 187.405 28.3987 201.111 41.9467ZM69.6026 52.5968C58.6496 49.7844 49.4551 46.1093 42.8886 41.9467C56.5947 28.3987 73.752 18.348 92.905 13.2173C83.4866 22.3986 75.4908 35.9466 69.6026 52.5968ZM43.1257 202.284C49.5539 198.055 58.676 194.334 69.629 191.489C75.5171 208.1 83.4998 221.615 92.905 230.783C73.8574 225.685 56.7923 215.707 43.1257 202.284ZM174.371 191.489C185.324 194.334 194.446 198.055 200.874 202.284C187.208 215.713 170.143 225.685 151.095 230.783C160.5 221.615 168.483 208.1 174.371 191.489Z" fill="black" fill-opacity="0.2"/>
<path d="M243.745 129.973C248.447 56.4366 187.57 -4.44722 114.027 0.255401C53.2423 4.14132 4.14133 53.2422 0.255406 114.027C-4.44722 187.57 56.43 248.447 129.973 243.745C190.758 239.859 239.859 190.758 243.745 129.973ZM61.462 177.243C77.9475 182.037 96.9095 184.903 117.307 185.285V234.497C91.153 233.417 67.2908 223.38 48.6779 207.375C53.8284 200.031 58.1754 189.763 61.462 177.243ZM48.6779 36.6316C67.2908 20.6203 91.153 10.5827 117.307 9.50258V58.7155C96.9095 59.0975 77.9475 61.9625 61.462 66.7639C58.1754 54.2302 53.8284 43.9687 48.6779 36.6316ZM182.452 66.7376C165.987 61.9493 147.058 59.0975 126.693 58.7155V9.50258C152.722 10.5761 176.485 20.5281 195.052 36.4011C189.994 43.8699 185.706 54.2038 182.452 66.7376ZM126.693 117.307L126.693 68.0944C146.109 68.5027 164.439 71.3875 180.299 76.1099C177.743 88.7885 176.281 102.857 176.018 117.307L126.693 117.307ZM117.307 117.307L67.9758 117.307C67.7124 102.824 66.237 88.7622 63.6486 76.1231C79.515 71.3941 97.8645 68.5027 117.307 68.0944L117.307 117.307ZM117.307 126.693L117.307 175.906C97.8645 175.497 79.515 172.606 63.6486 167.877C66.237 155.231 67.7124 141.176 67.9758 126.693L117.307 126.693ZM126.693 126.693L176.024 126.693C176.281 141.143 177.743 155.211 180.299 167.89C164.439 172.612 146.109 175.497 126.693 175.906L126.693 126.693ZM185.403 126.693H234.142C231.217 142.105 214.1 155.89 189.263 164.933C186.964 153.143 185.653 140.102 185.403 126.693ZM234.142 117.307H185.403C185.653 103.898 186.964 90.8566 189.263 79.0672C214.1 88.1101 231.217 101.895 234.142 117.307ZM58.5903 117.307H9.85824C12.7826 101.908 29.874 88.1299 54.6846 79.0869C57.0162 90.8369 58.34 103.871 58.5903 117.307ZM9.85824 126.693H58.5903C58.34 140.122 57.0162 153.157 54.6846 164.913C29.874 155.877 12.7826 142.098 9.85824 126.693ZM126.693 185.285C147.058 184.903 165.987 182.051 182.452 177.269C185.706 189.796 189.994 200.137 195.052 207.599C176.485 223.472 152.722 233.424 126.693 234.497V185.285ZM202.053 201.111C197.891 194.545 194.222 185.35 191.41 174.397C208.06 168.509 221.601 160.52 230.783 151.102C225.659 170.248 215.601 187.405 202.053 201.111ZM191.403 69.6026C194.216 58.6496 197.891 49.4551 202.053 42.8886C215.601 56.5947 225.652 73.752 230.783 92.905C221.601 83.4866 208.053 75.4908 191.403 69.6026ZM41.7228 43.1257C45.9446 49.5539 49.6659 58.6759 52.5112 69.629C35.9005 75.5171 22.3854 83.4997 13.2173 92.905C18.3151 73.8574 28.2933 56.7923 41.7228 43.1257ZM52.5112 174.371C49.6659 185.324 45.9446 194.446 41.7228 200.874C28.2867 187.208 18.3151 170.143 13.2173 151.095C22.3854 160.5 35.9005 168.483 52.5112 174.371Z" fill="black"/>
<path d="M243.745 129.973C248.447 56.4366 187.57 -4.44722 114.027 0.255401C53.2423 4.14132 4.14133 53.2422 0.255406 114.027C-4.44722 187.57 56.43 248.447 129.973 243.745C190.758 239.859 239.859 190.758 243.745 129.973ZM61.462 177.243C77.9475 182.037 96.9095 184.903 117.307 185.285V234.497C91.153 233.417 67.2908 223.38 48.6779 207.375C53.8284 200.031 58.1754 189.763 61.462 177.243ZM48.6779 36.6316C67.2908 20.6203 91.153 10.5827 117.307 9.50258V58.7155C96.9095 59.0975 77.9475 61.9625 61.462 66.7639C58.1754 54.2302 53.8284 43.9687 48.6779 36.6316ZM182.452 66.7376C165.987 61.9493 147.058 59.0975 126.693 58.7155V9.50258C152.722 10.5761 176.485 20.5281 195.052 36.4011C189.994 43.8699 185.706 54.2038 182.452 66.7376ZM126.693 117.307L126.693 68.0944C146.109 68.5027 164.439 71.3875 180.299 76.1099C177.743 88.7885 176.281 102.857 176.018 117.307L126.693 117.307ZM117.307 117.307L67.9758 117.307C67.7124 102.824 66.237 88.7622 63.6486 76.1231C79.515 71.3941 97.8645 68.5027 117.307 68.0944L117.307 117.307ZM117.307 126.693L117.307 175.906C97.8645 175.497 79.515 172.606 63.6486 167.877C66.237 155.231 67.7124 141.176 67.9758 126.693L117.307 126.693ZM126.693 126.693L176.024 126.693C176.281 141.143 177.743 155.211 180.299 167.89C164.439 172.612 146.109 175.497 126.693 175.906L126.693 126.693ZM185.403 126.693H234.142C231.217 142.105 214.1 155.89 189.263 164.933C186.964 153.143 185.653 140.102 185.403 126.693ZM234.142 117.307H185.403C185.653 103.898 186.964 90.8566 189.263 79.0672C214.1 88.1101 231.217 101.895 234.142 117.307ZM58.5903 117.307H9.85824C12.7826 101.908 29.874 88.1299 54.6846 79.0869C57.0162 90.8369 58.34 103.871 58.5903 117.307ZM9.85824 126.693H58.5903C58.34 140.122 57.0162 153.157 54.6846 164.913C29.874 155.877 12.7826 142.098 9.85824 126.693ZM126.693 185.285C147.058 184.903 165.987 182.051 182.452 177.269C185.706 189.796 189.994 200.137 195.052 207.599C176.485 223.472 152.722 233.424 126.693 234.497V185.285ZM202.053 201.111C197.891 194.545 194.222 185.35 191.41 174.397C208.06 168.509 221.601 160.52 230.783 151.102C225.659 170.248 215.601 187.405 202.053 201.111ZM191.403 69.6026C194.216 58.6496 197.891 49.4551 202.053 42.8886C215.601 56.5947 225.652 73.752 230.783 92.905C221.601 83.4866 208.053 75.4908 191.403 69.6026ZM41.7228 43.1257C45.9446 49.5539 49.6659 58.6759 52.5112 69.629C35.9005 75.5171 22.3854 83.4997 13.2173 92.905C18.3151 73.8574 28.2933 56.7923 41.7228 43.1257ZM52.5112 174.371C49.6659 185.324 45.9446 194.446 41.7228 200.874C28.2867 187.208 18.3151 170.143 13.2173 151.095C22.3854 160.5 35.9005 168.483 52.5112 174.371Z" fill="black" fill-opacity="0.2"/>
</svg>
