<svg width="177" height="24" viewBox="0 0 177 24" fill="none" xmlns="http://www.w3.org/2000/svg">
<path d="M12.7842 0.0251219C5.55114 -0.437431 -0.43743 5.55049 0.0251233 12.7842C0.407345 18.7631 5.23694 23.5927 11.2158 23.9749C18.4495 24.4374 24.4374 18.4495 23.9749 11.2158C23.5927 5.23694 18.7631 0.407344 12.7842 0.0251219ZM17.4337 17.9546C17.9053 16.333 18.1871 14.4679 18.2247 12.4616H23.0653C22.9591 15.0341 21.9718 17.3812 20.3975 19.212C19.6752 18.7054 18.6652 18.2778 17.4337 17.9546ZM3.60311 19.212C2.02822 17.3812 1.04093 15.0341 0.934681 12.4616H5.77529C5.81287 14.4679 6.09467 16.333 6.56695 17.9546C5.33412 18.2778 4.32479 18.7054 3.60311 19.212ZM6.56435 6.05386C6.09338 7.67344 5.81287 9.53597 5.77529 11.5384H0.934681C1.04028 8.97818 2.01915 6.64145 3.58043 4.81455C4.31508 5.31209 5.33153 5.73383 6.56435 6.05386ZM11.5384 11.5384H6.69846C6.73797 9.62861 7.02172 7.82568 7.48622 6.2657C8.7333 6.51771 10.1171 6.66088 11.5384 6.68679V11.5384ZM11.5384 12.4616V17.3139C10.1138 17.3398 8.73071 17.4849 7.48752 17.7395C7.02237 16.1789 6.73797 14.374 6.69846 12.4616H11.5384ZM12.4616 12.4616H17.3022C17.262 14.374 16.9776 16.1789 16.5125 17.7395C15.2686 17.4849 13.8862 17.3398 12.4616 17.3139V12.4616ZM12.4616 11.5384V6.68615C13.8829 6.66088 15.2667 6.51706 16.5138 6.2657C16.9783 7.82568 17.262 9.62861 17.3022 11.5384H12.4616ZM12.4616 5.76363V0.969663C13.9775 1.2573 15.3334 2.94102 16.2229 5.384C15.0633 5.61009 13.7806 5.73901 12.4616 5.76363ZM11.5384 0.969663V5.76363C10.2194 5.73901 8.93672 5.61009 7.7771 5.384C8.66657 2.94102 10.0225 1.2573 11.5384 0.969663ZM11.5384 18.237V23.0303C10.0238 22.7427 8.66852 21.0616 7.77904 18.6212C8.93478 18.3918 10.2168 18.2616 11.5384 18.237ZM12.4616 23.0303V18.237C13.7825 18.2616 15.0646 18.3918 16.221 18.6212C15.3321 21.0616 13.9769 22.7427 12.4616 23.0303ZM18.2247 11.5384C18.1871 9.53597 17.9066 7.67344 17.4363 6.05386C18.6685 5.73383 19.6856 5.31209 20.4196 4.81455C21.9808 6.6408 22.9597 8.97818 23.0653 11.5384H18.2247ZM19.7815 4.12591C19.1356 4.53534 18.2312 4.89683 17.1538 5.17281C16.5747 3.53573 15.7889 2.20314 14.8625 1.30006C16.7457 1.80472 18.4333 2.79331 19.7815 4.12591ZM6.84616 5.17345C5.76881 4.89683 4.86444 4.53534 4.21855 4.12591C5.56669 2.79331 7.2543 1.80472 9.1382 1.30006C8.21179 2.20314 7.42532 3.53573 6.84616 5.17345ZM4.24187 19.8968C4.87416 19.4809 5.77141 19.1148 6.84875 18.835C7.42792 20.4688 8.21309 21.7982 9.1382 22.6999C7.26466 22.1985 5.58613 21.2171 4.24187 19.8968ZM17.1513 18.835C18.2286 19.1148 19.1258 19.4809 19.7581 19.8968C18.4139 21.2177 16.7353 22.1985 14.8618 22.6999C15.7869 21.7982 16.5721 20.4688 17.1513 18.835Z" fill="black"/>
<path d="M12.7842 0.0251219C5.55114 -0.437431 -0.43743 5.55049 0.0251233 12.7842C0.407345 18.7631 5.23694 23.5927 11.2158 23.9749C18.4495 24.4374 24.4374 18.4495 23.9749 11.2158C23.5927 5.23694 18.7631 0.407344 12.7842 0.0251219ZM17.4337 17.9546C17.9053 16.333 18.1871 14.4679 18.2247 12.4616H23.0653C22.9591 15.0341 21.9718 17.3812 20.3975 19.212C19.6752 18.7054 18.6652 18.2778 17.4337 17.9546ZM3.60311 19.212C2.02822 17.3812 1.04093 15.0341 0.934681 12.4616H5.77529C5.81287 14.4679 6.09467 16.333 6.56695 17.9546C5.33412 18.2778 4.32479 18.7054 3.60311 19.212ZM6.56435 6.05386C6.09338 7.67344 5.81287 9.53597 5.77529 11.5384H0.934681C1.04028 8.97818 2.01915 6.64145 3.58043 4.81455C4.31508 5.31209 5.33153 5.73383 6.56435 6.05386ZM11.5384 11.5384H6.69846C6.73797 9.62861 7.02172 7.82568 7.48622 6.2657C8.7333 6.51771 10.1171 6.66088 11.5384 6.68679V11.5384ZM11.5384 12.4616V17.3139C10.1138 17.3398 8.73071 17.4849 7.48752 17.7395C7.02237 16.1789 6.73797 14.374 6.69846 12.4616H11.5384ZM12.4616 12.4616H17.3022C17.262 14.374 16.9776 16.1789 16.5125 17.7395C15.2686 17.4849 13.8862 17.3398 12.4616 17.3139V12.4616ZM12.4616 11.5384V6.68615C13.8829 6.66088 15.2667 6.51706 16.5138 6.2657C16.9783 7.82568 17.262 9.62861 17.3022 11.5384H12.4616ZM12.4616 5.76363V0.969663C13.9775 1.2573 15.3334 2.94102 16.2229 5.384C15.0633 5.61009 13.7806 5.73901 12.4616 5.76363ZM11.5384 0.969663V5.76363C10.2194 5.73901 8.93672 5.61009 7.7771 5.384C8.66657 2.94102 10.0225 1.2573 11.5384 0.969663ZM11.5384 18.237V23.0303C10.0238 22.7427 8.66852 21.0616 7.77904 18.6212C8.93478 18.3918 10.2168 18.2616 11.5384 18.237ZM12.4616 23.0303V18.237C13.7825 18.2616 15.0646 18.3918 16.221 18.6212C15.3321 21.0616 13.9769 22.7427 12.4616 23.0303ZM18.2247 11.5384C18.1871 9.53597 17.9066 7.67344 17.4363 6.05386C18.6685 5.73383 19.6856 5.31209 20.4196 4.81455C21.9808 6.6408 22.9597 8.97818 23.0653 11.5384H18.2247ZM19.7815 4.12591C19.1356 4.53534 18.2312 4.89683 17.1538 5.17281C16.5747 3.53573 15.7889 2.20314 14.8625 1.30006C16.7457 1.80472 18.4333 2.79331 19.7815 4.12591ZM6.84616 5.17345C5.76881 4.89683 4.86444 4.53534 4.21855 4.12591C5.56669 2.79331 7.2543 1.80472 9.1382 1.30006C8.21179 2.20314 7.42532 3.53573 6.84616 5.17345ZM4.24187 19.8968C4.87416 19.4809 5.77141 19.1148 6.84875 18.835C7.42792 20.4688 8.21309 21.7982 9.1382 22.6999C7.26466 22.1985 5.58613 21.2171 4.24187 19.8968ZM17.1513 18.835C18.2286 19.1148 19.1258 19.4809 19.7581 19.8968C18.4139 21.2177 16.7353 22.1985 14.8618 22.6999C15.7869 21.7982 16.5721 20.4688 17.1513 18.835Z" fill="black"/>
<path d="M23.9749 12.7842C24.4374 5.55114 18.4495 -0.437432 11.2158 0.0251214C5.23694 0.407343 0.407344 5.23694 0.0251219 11.2158C-0.437431 18.4495 5.55049 24.4374 12.7842 23.9749C18.7631 23.5927 23.5927 18.7631 23.9749 12.7842ZM6.04544 17.4337C7.66697 17.9053 9.53208 18.1871 11.5384 18.2247V23.0653C8.96587 22.9591 6.61877 21.9718 4.78799 20.3975C5.2946 19.6752 5.72217 18.6652 6.04544 17.4337ZM4.78799 3.60311C6.61877 2.02822 8.96587 1.04092 11.5384 0.93468V5.77529C9.53208 5.81287 7.66697 6.09467 6.04544 6.56694C5.72217 5.33412 5.2946 4.32479 4.78799 3.60311ZM17.9461 6.56435C16.3266 6.09338 14.4647 5.81287 12.4616 5.77529V0.93468C15.0218 1.04028 17.3592 2.01915 19.1854 3.58043C18.6879 4.31507 18.2662 5.33153 17.9461 6.56435ZM12.4616 11.5384L12.4616 6.69781C14.3714 6.73797 16.1743 7.02172 17.7343 7.48622C17.4829 8.7333 17.3391 10.1171 17.3132 11.5384L12.4616 11.5384ZM11.5384 11.5384L6.68615 11.5384C6.66023 10.1138 6.51512 8.73071 6.26052 7.48751C7.82115 7.02237 9.62601 6.73797 11.5384 6.69781L11.5384 11.5384ZM11.5384 12.4616L11.5384 17.3022C9.62601 17.262 7.82115 16.9776 6.26052 16.5125C6.51512 15.2686 6.66023 13.8862 6.68615 12.4616L11.5384 12.4616ZM12.4616 12.4616L17.3139 12.4616C17.3391 13.8829 17.4829 15.2667 17.7343 16.5138C16.1743 16.9783 14.3714 17.262 12.4616 17.3022L12.4616 12.4616ZM18.2364 12.4616H23.0303C22.7427 13.9775 21.059 15.3334 18.616 16.2229C18.3899 15.0633 18.261 13.7806 18.2364 12.4616ZM23.0303 11.5384H18.2364C18.261 10.2194 18.3899 8.93672 18.616 7.7771C21.059 8.66657 22.7427 10.0225 23.0303 11.5384ZM5.76298 11.5384H0.969663C1.2573 10.0238 2.93843 8.66852 5.37882 7.77904C5.60815 8.93477 5.73837 10.2168 5.76298 11.5384ZM0.969663 12.4616H5.76298C5.73837 13.7825 5.60815 15.0646 5.37882 16.221C2.93843 15.3321 1.2573 13.9769 0.969663 12.4616ZM12.4616 18.2247C14.4647 18.1871 16.3266 17.9066 17.9461 17.4363C18.2662 18.6685 18.6879 19.6856 19.1854 20.4196C17.3592 21.9808 15.0218 22.9597 12.4616 23.0653V18.2247ZM19.8741 19.7815C19.4647 19.1356 19.1038 18.2312 18.8272 17.1538C20.4649 16.5747 21.7969 15.7889 22.6999 14.8625C22.1959 16.7457 21.2067 18.4333 19.8741 19.7815ZM18.8265 6.84616C19.1032 5.76881 19.4647 4.86444 19.8741 4.21855C21.2067 5.56669 22.1953 7.25429 22.6999 9.13819C21.7969 8.21179 20.4643 7.42532 18.8265 6.84616ZM4.10388 4.24187C4.51914 4.87415 4.88517 5.7714 5.16503 6.84875C3.5312 7.42791 2.20184 8.21309 1.30006 9.13819C1.80148 7.26466 2.78295 5.58612 4.10388 4.24187ZM5.16503 17.1512C4.88517 18.2286 4.51914 19.1258 4.10388 19.7581C2.7823 18.4139 1.80148 16.7353 1.30006 14.8618C2.20184 15.7869 3.5312 16.5721 5.16503 17.1512Z" fill="black"/>
<path d="M23.9749 12.7842C24.4374 5.55114 18.4495 -0.437432 11.2158 0.0251214C5.23694 0.407343 0.407344 5.23694 0.0251219 11.2158C-0.437431 18.4495 5.55049 24.4374 12.7842 23.9749C18.7631 23.5927 23.5927 18.7631 23.9749 12.7842ZM6.04544 17.4337C7.66697 17.9053 9.53208 18.1871 11.5384 18.2247V23.0653C8.96587 22.9591 6.61877 21.9718 4.78799 20.3975C5.2946 19.6752 5.72217 18.6652 6.04544 17.4337ZM4.78799 3.60311C6.61877 2.02822 8.96587 1.04092 11.5384 0.93468V5.77529C9.53208 5.81287 7.66697 6.09467 6.04544 6.56694C5.72217 5.33412 5.2946 4.32479 4.78799 3.60311ZM17.9461 6.56435C16.3266 6.09338 14.4647 5.81287 12.4616 5.77529V0.93468C15.0218 1.04028 17.3592 2.01915 19.1854 3.58043C18.6879 4.31507 18.2662 5.33153 17.9461 6.56435ZM12.4616 11.5384L12.4616 6.69781C14.3714 6.73797 16.1743 7.02172 17.7343 7.48622C17.4829 8.7333 17.3391 10.1171 17.3132 11.5384L12.4616 11.5384ZM11.5384 11.5384L6.68615 11.5384C6.66023 10.1138 6.51512 8.73071 6.26052 7.48751C7.82115 7.02237 9.62601 6.73797 11.5384 6.69781L11.5384 11.5384ZM11.5384 12.4616L11.5384 17.3022C9.62601 17.262 7.82115 16.9776 6.26052 16.5125C6.51512 15.2686 6.66023 13.8862 6.68615 12.4616L11.5384 12.4616ZM12.4616 12.4616L17.3139 12.4616C17.3391 13.8829 17.4829 15.2667 17.7343 16.5138C16.1743 16.9783 14.3714 17.262 12.4616 17.3022L12.4616 12.4616ZM18.2364 12.4616H23.0303C22.7427 13.9775 21.059 15.3334 18.616 16.2229C18.3899 15.0633 18.261 13.7806 18.2364 12.4616ZM23.0303 11.5384H18.2364C18.261 10.2194 18.3899 8.93672 18.616 7.7771C21.059 8.66657 22.7427 10.0225 23.0303 11.5384ZM5.76298 11.5384H0.969663C1.2573 10.0238 2.93843 8.66852 5.37882 7.77904C5.60815 8.93477 5.73837 10.2168 5.76298 11.5384ZM0.969663 12.4616H5.76298C5.73837 13.7825 5.60815 15.0646 5.37882 16.221C2.93843 15.3321 1.2573 13.9769 0.969663 12.4616ZM12.4616 18.2247C14.4647 18.1871 16.3266 17.9066 17.9461 17.4363C18.2662 18.6685 18.6879 19.6856 19.1854 20.4196C17.3592 21.9808 15.0218 22.9597 12.4616 23.0653V18.2247ZM19.8741 19.7815C19.4647 19.1356 19.1038 18.2312 18.8272 17.1538C20.4649 16.5747 21.7969 15.7889 22.6999 14.8625C22.1959 16.7457 21.2067 18.4333 19.8741 19.7815ZM18.8265 6.84616C19.1032 5.76881 19.4647 4.86444 19.8741 4.21855C21.2067 5.56669 22.1953 7.25429 22.6999 9.13819C21.7969 8.21179 20.4643 7.42532 18.8265 6.84616ZM4.10388 4.24187C4.51914 4.87415 4.88517 5.7714 5.16503 6.84875C3.5312 7.42791 2.20184 8.21309 1.30006 9.13819C1.80148 7.26466 2.78295 5.58612 4.10388 4.24187ZM5.16503 17.1512C4.88517 18.2286 4.51914 19.1258 4.10388 19.7581C2.7823 18.4139 1.80148 16.7353 1.30006 14.8618C2.20184 15.7869 3.5312 16.5721 5.16503 17.1512Z" fill="black"/>
<path d="M31.1122 17.5L28.2884 7.31818H29.9041L31.8878 15.2031H31.9822L34.0455 7.31818H35.6463L37.7095 15.2081H37.804L39.7827 7.31818H41.4034L38.5746 17.5H37.0284L34.8857 9.87358H34.8061L32.6634 17.5H31.1122ZM45.2241 17.6541C44.4717 17.6541 43.8237 17.4934 43.2802 17.1719C42.7399 16.8471 42.3223 16.3913 42.0273 15.8047C41.7357 15.2147 41.5898 14.5237 41.5898 13.7315C41.5898 12.9493 41.7357 12.2599 42.0273 11.6634C42.3223 11.0668 42.7333 10.6011 43.2603 10.2663C43.7906 9.93158 44.4104 9.7642 45.1197 9.7642C45.5505 9.7642 45.9682 9.83546 46.3725 9.97798C46.7769 10.1205 47.1398 10.3442 47.4613 10.6491C47.7828 10.9541 48.0363 11.3501 48.2219 11.8374C48.4076 12.3213 48.5004 12.9096 48.5004 13.6023V14.1293H42.43V13.0156H47.0437C47.0437 12.6245 46.9641 12.2782 46.805 11.9766C46.646 11.6716 46.4222 11.4313 46.1339 11.2557C45.8488 11.08 45.5141 10.9922 45.1296 10.9922C44.712 10.9922 44.3474 11.0949 44.0359 11.3004C43.7276 11.5026 43.489 11.7678 43.32 12.0959C43.1542 12.4207 43.0714 12.7737 43.0714 13.1548V14.0249C43.0714 14.5353 43.1609 14.9695 43.3398 15.3274C43.5221 15.6854 43.7757 15.9588 44.1005 16.1477C44.4253 16.3333 44.8048 16.4261 45.239 16.4261C45.5207 16.4261 45.7776 16.3864 46.0096 16.3068C46.2416 16.224 46.4421 16.1013 46.6112 15.9389C46.7802 15.7765 46.9094 15.576 46.9989 15.3374L48.4059 15.5909C48.2932 16.0052 48.091 16.3681 47.7994 16.6797C47.511 16.9879 47.1481 17.2282 46.7106 17.4006C46.2764 17.5696 45.7809 17.6541 45.2241 17.6541ZM50.269 17.5V7.31818H51.7555V11.1016H51.845C51.9312 10.9425 52.0555 10.7585 52.2179 10.5497C52.3803 10.3409 52.6056 10.1586 52.894 10.0028C53.1824 9.84375 53.5635 9.7642 54.0375 9.7642C54.6539 9.7642 55.2041 9.91998 55.688 10.2315C56.1719 10.5431 56.5514 10.9922 56.8265 11.5788C57.1049 12.1655 57.2441 12.8714 57.2441 13.6967C57.2441 14.522 57.1066 15.2296 56.8315 15.8196C56.5564 16.4062 56.1786 16.8587 55.698 17.1768C55.2174 17.4917 54.6689 17.6491 54.0524 17.6491C53.5884 17.6491 53.2089 17.5713 52.9139 17.4155C52.6222 17.2597 52.3935 17.0774 52.2278 16.8686C52.0621 16.6598 51.9345 16.4742 51.845 16.3118H51.7207V17.5H50.269ZM51.7257 13.6818C51.7257 14.2187 51.8036 14.6894 51.9593 15.0938C52.1151 15.4981 52.3405 15.8146 52.6355 16.0433C52.9305 16.2687 53.2917 16.3814 53.7193 16.3814C54.1634 16.3814 54.5346 16.2637 54.8329 16.0284C55.1312 15.7898 55.3566 15.4666 55.5091 15.0589C55.6648 14.6513 55.7427 14.1922 55.7427 13.6818C55.7427 13.178 55.6665 12.7256 55.514 12.3246C55.3649 11.9235 55.1395 11.607 54.8379 11.375C54.5396 11.143 54.1667 11.027 53.7193 11.027C53.2884 11.027 52.9238 11.138 52.6255 11.3601C52.3306 11.5821 52.1068 11.892 51.9544 12.2898C51.8019 12.6875 51.7257 13.1515 51.7257 13.6818ZM71.1944 10.6293H69.6433C69.5836 10.2978 69.4726 10.0062 69.3102 9.75426C69.1478 9.50237 68.9489 9.28859 68.7136 9.11293C68.4783 8.93726 68.2148 8.80469 67.9231 8.7152C67.6348 8.62571 67.3282 8.58097 67.0034 8.58097C66.4167 8.58097 65.8914 8.72846 65.4274 9.02344C64.9667 9.31842 64.6021 9.75095 64.3336 10.321C64.0685 10.8911 63.9359 11.5871 63.9359 12.4091C63.9359 13.2377 64.0685 13.937 64.3336 14.5071C64.6021 15.0772 64.9683 15.508 65.4324 15.7997C65.8964 16.0914 66.4184 16.2372 66.9984 16.2372C67.3199 16.2372 67.6248 16.1941 67.9132 16.108C68.2048 16.0185 68.4683 15.8875 68.7037 15.7152C68.939 15.5429 69.1378 15.3324 69.3002 15.0838C69.466 14.8319 69.5803 14.5436 69.6433 14.2188L71.1944 14.2237C71.1116 14.7242 70.9508 15.1849 70.7122 15.6058C70.4769 16.0234 70.1736 16.3847 69.8024 16.6896C69.4345 16.9912 69.0136 17.2249 68.5396 17.3906C68.0656 17.5563 67.5486 17.6392 66.9885 17.6392C66.1068 17.6392 65.3213 17.4304 64.6319 17.0128C63.9425 16.5919 63.399 15.9903 63.0012 15.2081C62.6068 14.4259 62.4096 13.4929 62.4096 12.4091C62.4096 11.322 62.6085 10.389 63.0062 9.61008C63.4039 8.82789 63.9475 8.22798 64.6369 7.81037C65.3263 7.38944 66.1101 7.17898 66.9885 7.17898C67.5287 7.17898 68.0325 7.25687 68.4998 7.41264C68.9705 7.5651 69.3931 7.79048 69.7676 8.08878C70.1421 8.38376 70.452 8.74503 70.6973 9.17258C70.9425 9.59683 71.1083 10.0824 71.1944 10.6293ZM76.13 17.6541C75.4141 17.6541 74.7893 17.4901 74.2557 17.1619C73.7221 16.8338 73.3078 16.3748 73.0128 15.7848C72.7178 15.1948 72.5703 14.5054 72.5703 13.7166C72.5703 12.9245 72.7178 12.2318 73.0128 11.6385C73.3078 11.0452 73.7221 10.5845 74.2557 10.2564C74.7893 9.92827 75.4141 9.7642 76.13 9.7642C76.8459 9.7642 77.4706 9.92827 78.0043 10.2564C78.5379 10.5845 78.9522 11.0452 79.2472 11.6385C79.5421 12.2318 79.6896 12.9245 79.6896 13.7166C79.6896 14.5054 79.5421 15.1948 79.2472 15.7848C78.9522 16.3748 78.5379 16.8338 78.0043 17.1619C77.4706 17.4901 76.8459 17.6541 76.13 17.6541ZM76.1349 16.4062C76.599 16.4062 76.9834 16.2836 77.2884 16.0384C77.5933 15.7931 77.8187 15.4666 77.9645 15.0589C78.1136 14.6513 78.1882 14.2022 78.1882 13.7116C78.1882 13.2244 78.1136 12.777 77.9645 12.3693C77.8187 11.9583 77.5933 11.6286 77.2884 11.38C76.9834 11.1314 76.599 11.0071 76.1349 11.0071C75.6676 11.0071 75.2798 11.1314 74.9716 11.38C74.6667 11.6286 74.4396 11.9583 74.2905 12.3693C74.1446 12.777 74.0717 13.2244 74.0717 13.7116C74.0717 14.2022 74.1446 14.6513 74.2905 15.0589C74.4396 15.4666 74.6667 15.7931 74.9716 16.0384C75.2798 16.2836 75.6676 16.4062 76.1349 16.4062ZM82.8354 12.9659V17.5H81.3489V9.86364H82.7757V11.1065H82.8702C83.0459 10.7022 83.321 10.3774 83.6955 10.1321C84.0733 9.88684 84.5489 9.7642 85.1223 9.7642C85.6427 9.7642 86.0984 9.87358 86.4895 10.0923C86.8806 10.3078 87.1839 10.6293 87.3993 11.0568C87.6148 11.4844 87.7225 12.013 87.7225 12.6428V17.5H86.236V12.8217C86.236 12.2682 86.0918 11.8357 85.8034 11.5241C85.5151 11.2093 85.119 11.0518 84.6152 11.0518C84.2705 11.0518 83.964 11.1264 83.6955 11.2756C83.4303 11.4247 83.2199 11.6435 83.0641 11.9318C82.9116 12.2169 82.8354 12.5616 82.8354 12.9659ZM93.2807 9.86364V11.0568H89.1096V9.86364H93.2807ZM90.2282 8.03409H91.7147V15.2578C91.7147 15.5462 91.7578 15.7633 91.8439 15.9091C91.9301 16.0516 92.0411 16.1494 92.177 16.2024C92.3162 16.2521 92.467 16.277 92.6294 16.277C92.7488 16.277 92.8532 16.2687 92.9426 16.2521C93.0321 16.2356 93.1017 16.2223 93.1515 16.2124L93.4199 17.4403C93.3337 17.4735 93.2111 17.5066 93.052 17.5398C92.8929 17.5762 92.6941 17.5961 92.4554 17.5994C92.0643 17.6061 91.6998 17.5365 91.3617 17.3906C91.0236 17.2448 90.7502 17.0194 90.5414 16.7145C90.3326 16.4096 90.2282 16.0268 90.2282 15.5661V8.03409ZM98.1342 17.6541C97.3819 17.6541 96.7339 17.4934 96.1903 17.1719C95.6501 16.8471 95.2325 16.3913 94.9375 15.8047C94.6458 15.2147 94.5 14.5237 94.5 13.7315C94.5 12.9493 94.6458 12.2599 94.9375 11.6634C95.2325 11.0668 95.6435 10.6011 96.1705 10.2663C96.7008 9.93158 97.3205 9.7642 98.0298 9.7642C98.4607 9.7642 98.8783 9.83546 99.2827 9.97798C99.687 10.1205 100.05 10.3442 100.371 10.6491C100.693 10.9541 100.946 11.3501 101.132 11.8374C101.318 12.3213 101.411 12.9096 101.411 13.6023V14.1293H95.3402V13.0156H99.9538C99.9538 12.6245 99.8743 12.2782 99.7152 11.9766C99.5561 11.6716 99.3324 11.4313 99.044 11.2557C98.759 11.08 98.4242 10.9922 98.0398 10.9922C97.6222 10.9922 97.2576 11.0949 96.946 11.3004C96.6378 11.5026 96.3991 11.7678 96.2301 12.0959C96.0644 12.4207 95.9815 12.7737 95.9815 13.1548V14.0249C95.9815 14.5353 96.071 14.9695 96.25 15.3274C96.4323 15.6854 96.6858 15.9588 97.0107 16.1477C97.3355 16.3333 97.715 16.4261 98.1491 16.4261C98.4309 16.4261 98.6877 16.3864 98.9197 16.3068C99.1518 16.224 99.3523 16.1013 99.5213 15.9389C99.6903 15.7765 99.8196 15.576 99.9091 15.3374L101.316 15.5909C101.203 16.0052 101.001 16.3681 100.71 16.6797C100.421 16.9879 100.058 17.2282 99.6207 17.4006C99.1866 17.5696 98.6911 17.6541 98.1342 17.6541ZM104.055 9.86364L105.741 12.8366L107.441 9.86364H109.067L106.685 13.6818L109.087 17.5H107.461L105.741 14.6463L104.026 17.5H102.395L104.771 13.6818L102.425 9.86364H104.055ZM114.158 9.86364V11.0568H109.987V9.86364H114.158ZM111.105 8.03409H112.592V15.2578C112.592 15.5462 112.635 15.7633 112.721 15.9091C112.807 16.0516 112.918 16.1494 113.054 16.2024C113.193 16.2521 113.344 16.277 113.506 16.277C113.626 16.277 113.73 16.2687 113.82 16.2521C113.909 16.2356 113.979 16.2223 114.028 16.2124L114.297 17.4403C114.211 17.4735 114.088 17.5066 113.929 17.5398C113.77 17.5762 113.571 17.5961 113.332 17.5994C112.941 17.6061 112.577 17.5365 112.239 17.3906C111.901 17.2448 111.627 17.0194 111.418 16.7145C111.21 16.4096 111.105 16.0268 111.105 15.5661V8.03409ZM119.626 17.5V7.31818H123.256C124.048 7.31818 124.704 7.46236 125.224 7.75071C125.745 8.03906 126.134 8.43347 126.393 8.93395C126.651 9.43111 126.781 9.99124 126.781 10.6143C126.781 11.2408 126.65 11.8042 126.388 12.3047C126.129 12.8018 125.738 13.1963 125.214 13.4879C124.694 13.7763 124.04 13.9205 123.251 13.9205H120.755V12.6179H123.112C123.612 12.6179 124.018 12.5317 124.33 12.3594C124.641 12.1837 124.87 11.9451 125.016 11.6435C125.161 11.3419 125.234 10.9988 125.234 10.6143C125.234 10.2299 125.161 9.88849 125.016 9.5902C124.87 9.2919 124.639 9.05824 124.325 8.8892C124.013 8.72017 123.602 8.63565 123.092 8.63565H121.163V17.5H119.626ZM128.462 17.5V9.86364H129.899V11.0767H129.979C130.118 10.6657 130.363 10.3426 130.714 10.1072C131.069 9.86861 131.47 9.74929 131.917 9.74929C132.01 9.74929 132.12 9.7526 132.246 9.75923C132.375 9.76586 132.476 9.77415 132.549 9.78409V11.206C132.489 11.1894 132.383 11.1712 132.231 11.1513C132.078 11.1281 131.926 11.1165 131.773 11.1165C131.422 11.1165 131.109 11.1911 130.834 11.3402C130.562 11.486 130.346 11.6899 130.187 11.9517C130.028 12.2102 129.949 12.5052 129.949 12.8366V17.5H128.462ZM136.778 17.6541C136.063 17.6541 135.438 17.4901 134.904 17.1619C134.371 16.8338 133.956 16.3748 133.661 15.7848C133.366 15.1948 133.219 14.5054 133.219 13.7166C133.219 12.9245 133.366 12.2318 133.661 11.6385C133.956 11.0452 134.371 10.5845 134.904 10.2564C135.438 9.92827 136.063 9.7642 136.778 9.7642C137.494 9.7642 138.119 9.92827 138.653 10.2564C139.186 10.5845 139.601 11.0452 139.896 11.6385C140.191 12.2318 140.338 12.9245 140.338 13.7166C140.338 14.5054 140.191 15.1948 139.896 15.7848C139.601 16.3748 139.186 16.8338 138.653 17.1619C138.119 17.4901 137.494 17.6541 136.778 17.6541ZM136.783 16.4062C137.247 16.4062 137.632 16.2836 137.937 16.0384C138.242 15.7931 138.467 15.4666 138.613 15.0589C138.762 14.6513 138.837 14.2022 138.837 13.7116C138.837 13.2244 138.762 12.777 138.613 12.3693C138.467 11.9583 138.242 11.6286 137.937 11.38C137.632 11.1314 137.247 11.0071 136.783 11.0071C136.316 11.0071 135.928 11.1314 135.62 11.38C135.315 11.6286 135.088 11.9583 134.939 12.3693C134.793 12.777 134.72 13.2244 134.72 13.7116C134.72 14.2022 134.793 14.6513 134.939 15.0589C135.088 15.4666 135.315 15.7931 135.62 16.0384C135.928 16.2836 136.316 16.4062 136.783 16.4062ZM145.562 9.86364V11.0568H141.391V9.86364H145.562ZM142.509 8.03409H143.996V15.2578C143.996 15.5462 144.039 15.7633 144.125 15.9091C144.211 16.0516 144.322 16.1494 144.458 16.2024C144.597 16.2521 144.748 16.277 144.911 16.277C145.03 16.277 145.134 16.2687 145.224 16.2521C145.313 16.2356 145.383 16.2223 145.433 16.2124L145.701 17.4403C145.615 17.4735 145.492 17.5066 145.333 17.5398C145.174 17.5762 144.975 17.5961 144.737 17.5994C144.346 17.6061 143.981 17.5365 143.643 17.3906C143.305 17.2448 143.031 17.0194 142.823 16.7145C142.614 16.4096 142.509 16.0268 142.509 15.5661V8.03409ZM150.341 17.6541C149.625 17.6541 149 17.4901 148.467 17.1619C147.933 16.8338 147.519 16.3748 147.224 15.7848C146.929 15.1948 146.781 14.5054 146.781 13.7166C146.781 12.9245 146.929 12.2318 147.224 11.6385C147.519 11.0452 147.933 10.5845 148.467 10.2564C149 9.92827 149.625 9.7642 150.341 9.7642C151.057 9.7642 151.682 9.92827 152.215 10.2564C152.749 10.5845 153.163 11.0452 153.458 11.6385C153.753 12.2318 153.901 12.9245 153.901 13.7166C153.901 14.5054 153.753 15.1948 153.458 15.7848C153.163 16.3748 152.749 16.8338 152.215 17.1619C151.682 17.4901 151.057 17.6541 150.341 17.6541ZM150.346 16.4062C150.81 16.4062 151.194 16.2836 151.499 16.0384C151.804 15.7931 152.03 15.4666 152.175 15.0589C152.325 14.6513 152.399 14.2022 152.399 13.7116C152.399 13.2244 152.325 12.777 152.175 12.3693C152.03 11.9583 151.804 11.6286 151.499 11.38C151.194 11.1314 150.81 11.0071 150.346 11.0071C149.879 11.0071 149.491 11.1314 149.183 11.38C148.878 11.6286 148.651 11.9583 148.501 12.3693C148.356 12.777 148.283 13.2244 148.283 13.7116C148.283 14.2022 148.356 14.6513 148.501 15.0589C148.651 15.4666 148.878 15.7931 149.183 16.0384C149.491 16.2836 149.879 16.4062 150.346 16.4062ZM158.776 17.6541C158.037 17.6541 157.401 17.4867 156.867 17.152C156.337 16.8139 155.929 16.3482 155.644 15.755C155.359 15.1617 155.217 14.4822 155.217 13.7166C155.217 12.9411 155.363 12.2566 155.654 11.6634C155.946 11.0668 156.357 10.6011 156.887 10.2663C157.418 9.93158 158.042 9.7642 158.762 9.7642C159.342 9.7642 159.859 9.87192 160.313 10.0874C160.767 10.2995 161.133 10.5978 161.411 10.9822C161.693 11.3667 161.86 11.8158 161.914 12.3295H160.467C160.387 11.9716 160.205 11.6634 159.92 11.4048C159.638 11.1463 159.26 11.017 158.786 11.017C158.372 11.017 158.009 11.1264 157.698 11.3452C157.389 11.5606 157.149 11.8688 156.977 12.2699C156.804 12.6676 156.718 13.1383 156.718 13.6818C156.718 14.2386 156.803 14.7192 156.972 15.1236C157.141 15.5279 157.379 15.8411 157.688 16.0632C157.999 16.2853 158.365 16.3963 158.786 16.3963C159.068 16.3963 159.323 16.3449 159.552 16.2422C159.784 16.1361 159.978 15.9853 160.134 15.7898C160.293 15.5942 160.404 15.3589 160.467 15.0838H161.914C161.86 15.5777 161.7 16.0185 161.431 16.4062C161.163 16.794 160.803 17.099 160.352 17.321C159.905 17.5431 159.38 17.6541 158.776 17.6541ZM166.72 17.6541C166.004 17.6541 165.379 17.4901 164.846 17.1619C164.312 16.8338 163.898 16.3748 163.603 15.7848C163.308 15.1948 163.16 14.5054 163.16 13.7166C163.16 12.9245 163.308 12.2318 163.603 11.6385C163.898 11.0452 164.312 10.5845 164.846 10.2564C165.379 9.92827 166.004 9.7642 166.72 9.7642C167.436 9.7642 168.06 9.92827 168.594 10.2564C169.128 10.5845 169.542 11.0452 169.837 11.6385C170.132 12.2318 170.279 12.9245 170.279 13.7166C170.279 14.5054 170.132 15.1948 169.837 15.7848C169.542 16.3748 169.128 16.8338 168.594 17.1619C168.06 17.4901 167.436 17.6541 166.72 17.6541ZM166.725 16.4062C167.189 16.4062 167.573 16.2836 167.878 16.0384C168.183 15.7931 168.408 15.4666 168.554 15.0589C168.703 14.6513 168.778 14.2022 168.778 13.7116C168.778 13.2244 168.703 12.777 168.554 12.3693C168.408 11.9583 168.183 11.6286 167.878 11.38C167.573 11.1314 167.189 11.0071 166.725 11.0071C166.257 11.0071 165.87 11.1314 165.561 11.38C165.257 11.6286 165.029 11.9583 164.88 12.3693C164.734 12.777 164.662 13.2244 164.662 13.7116C164.662 14.2022 164.734 14.6513 164.88 15.0589C165.029 15.4666 165.257 15.7931 165.561 16.0384C165.87 16.2836 166.257 16.4062 166.725 16.4062ZM173.425 7.31818V17.5H171.939V7.31818H173.425Z" fill="black"/>
</svg>
